{"glyphs":{"0":{"ha":833,"x_min":29,"x_max":804,"o":"m 418 944 q 678 835 572 944 q 774 672 743 765 q 804 449 804 579 q 772 238 804 328 q 676 82 739 144 q 415 -18 575 -18 q 169 75 267 -18 q 29 463 29 207 q 151 835 29 704 q 269 917 203 890 q 418 944 340 944 m 419 731 q 322 667 353 731 q 292 464 292 604 q 322 260 292 322 q 419 194 354 194 q 513 258 483 194 q 543 456 543 324 q 532 593 543 531 q 503 682 521 653 q 419 731 472 731 z "},"1":{"ha":833,"x_min":182,"x_max":596,"o":"m 596 926 l 596 0 l 344 0 l 344 704 l 182 704 l 344 926 l 596 926 z "},"2":{"ha":835,"x_min":94,"x_max":742,"o":"m 96 926 l 397 926 q 558 904 492 926 q 667 832 619 883 q 722 743 704 793 q 742 636 742 692 q 671 449 742 528 q 607 394 640 417 q 535 363 569 371 q 396 350 478 350 l 96 350 q 94 389 94 369 q 101 456 94 433 q 129 507 110 483 q 190 556 154 540 q 286 569 224 569 l 390 569 q 457 588 432 569 q 479 638 479 604 q 458 688 479 671 q 376 706 439 706 l 96 706 l 96 926 m 706 219 l 706 0 l 96 0 l 96 219 l 706 219 z "},"3":{"ha":833,"x_min":93,"x_max":740,"o":"m 319 569 l 413 569 q 658 489 572 569 q 740 292 740 414 q 676 104 740 183 q 572 25 632 49 q 419 0 510 0 l 93 0 l 93 219 l 389 219 q 438 224 422 219 q 461 238 453 228 q 478 285 478 256 q 454 335 478 321 q 375 350 428 350 l 169 350 l 319 569 m 722 926 l 567 706 l 93 706 l 93 926 l 722 926 z "},"4":{"ha":833,"x_min":65,"x_max":757,"o":"m 628 926 l 453 569 l 757 569 l 757 350 l 65 350 l 353 926 l 628 926 m 674 219 l 674 0 l 353 0 l 353 219 l 674 219 z "},"5":{"ha":833,"x_min":114,"x_max":739,"o":"m 114 569 l 397 569 q 557 547 494 569 q 665 476 622 525 q 719 390 701 438 q 739 286 739 339 q 718 179 739 231 q 663 89 697 128 q 557 21 618 42 q 407 0 497 0 l 114 0 l 114 219 l 383 219 q 453 238 425 219 q 476 286 476 253 q 454 335 476 321 q 382 350 431 350 l 114 350 l 114 569 m 686 926 l 686 706 l 114 706 l 114 926 l 686 926 z "},"6":{"ha":833,"x_min":46,"x_max":788,"o":"m 610 926 l 365 492 q 317 392 335 438 q 303 319 303 356 q 340 226 303 261 q 418 194 375 194 q 499 231 465 194 q 531 321 531 264 q 510 426 531 372 q 432 569 490 476 l 718 569 q 774 432 758 488 q 788 322 788 382 q 725 121 788 206 q 596 18 676 54 q 418 -18 515 -18 q 258 10 333 -18 q 136 90 186 36 q 69 199 93 135 q 46 326 46 261 q 65 453 46 388 q 132 597 81 504 l 318 926 l 610 926 z "},"7":{"ha":833,"x_min":99,"x_max":735,"o":"m 618 569 l 435 0 l 169 0 l 361 569 l 618 569 m 735 926 l 664 706 l 99 706 l 99 926 l 735 926 z "},"8":{"ha":833,"x_min":29,"x_max":804,"o":"m 663 482 q 724 439 707 454 q 760 399 744 419 q 804 260 804 338 q 704 60 804 135 q 579 1 653 19 q 411 -18 504 -18 q 236 4 307 -18 q 110 71 157 29 q 29 254 29 142 q 71 392 29 333 q 107 433 85 413 q 165 482 133 457 q 86 558 108 526 q 46 686 46 618 q 69 786 46 736 q 135 868 93 836 q 422 944 232 944 q 701 863 604 944 q 763 782 742 829 q 783 686 783 736 q 736 550 783 610 q 663 482 713 522 m 429 474 q 506 560 486 528 q 526 629 526 593 q 494 703 526 672 q 417 731 464 731 q 335 703 364 731 q 303 628 303 674 q 324 560 303 592 q 403 474 346 526 q 325 401 349 429 q 296 354 306 378 q 286 307 286 331 q 322 226 286 258 q 415 194 358 194 q 511 226 472 194 q 547 308 547 257 q 507 404 547 356 q 429 474 490 426 z "},"9":{"ha":833,"x_min":44,"x_max":788,"o":"m 229 0 l 468 428 q 517 528 504 492 q 531 603 531 565 q 519 661 531 638 q 486 706 507 689 q 415 731 457 731 q 333 694 364 731 q 301 600 301 656 q 324 497 301 557 q 403 347 342 447 l 118 347 q 60 486 75 431 q 44 600 44 540 q 135 836 44 742 q 257 917 186 889 q 411 944 329 944 q 574 915 499 944 q 697 836 653 885 q 765 728 742 789 q 788 597 788 669 q 771 481 788 536 q 711 347 753 422 l 519 0 l 229 0 z "}," ":{"ha":347,"x_min":0,"x_max":0,"o":""},"!":{"ha":422,"x_min":97,"x_max":325,"o":"m 325 926 l 304 351 l 111 351 l 111 926 l 325 926 m 315 219 l 315 0 l 97 0 l 97 219 l 315 219 z "},"\"":{"ha":613,"x_min":46,"x_max":567,"o":"m 242 557 l 79 557 l 46 926 l 275 926 l 242 557 m 535 557 l 371 557 l 339 926 l 567 926 l 535 557 z "},"#":{"ha":833,"x_min":11,"x_max":822,"o":"m 781 394 l 756 239 l 629 239 l 590 0 l 411 0 l 449 239 l 315 239 l 278 0 l 100 0 l 138 239 l 11 239 l 36 394 l 163 394 l 183 532 l 57 532 l 82 688 l 208 688 l 246 926 l 424 926 l 386 688 l 521 688 l 557 926 l 738 926 l 699 688 l 822 688 l 797 532 l 675 532 l 653 394 l 781 394 m 494 532 l 361 532 l 340 394 l 474 394 l 494 532 z "},"$":{"ha":835,"x_min":86,"x_max":749,"o":"m 114 224 l 401 224 q 464 240 442 224 q 486 289 486 257 q 467 331 486 315 q 414 346 447 346 l 356 347 q 193 397 261 347 q 108 500 133 440 q 86 569 94 532 l 451 569 q 593 539 528 569 q 697 451 656 510 q 749 290 749 379 q 685 107 749 183 q 622 51 657 74 q 529 14 594 35 l 529 -37 l 306 -37 l 306 3 l 114 3 l 114 224 m 693 926 l 693 706 l 86 706 q 117 790 100 757 q 158 846 131 818 q 222 894 188 878 q 314 926 258 913 l 314 963 l 538 963 l 538 926 l 693 926 z "},"%":{"ha":1278,"x_min":18,"x_max":1260,"o":"m 261 936 q 422 874 358 936 q 501 656 501 797 q 421 436 501 508 q 260 378 358 378 q 83 453 147 378 q 18 657 18 529 q 83 861 18 785 q 261 936 147 936 m 261 811 q 208 775 225 811 q 192 657 192 738 q 208 540 192 578 q 261 503 225 503 q 311 539 294 503 q 328 653 328 575 q 311 772 328 733 q 261 811 294 811 m 693 926 l 865 926 l 594 0 l 422 0 l 693 926 m 1019 549 q 1182 485 1115 549 q 1260 267 1260 408 q 1181 47 1260 119 q 1018 -11 1118 -11 q 843 64 908 -11 q 778 268 778 140 q 843 474 778 397 q 1019 549 908 549 m 1021 424 q 968 386 985 424 q 951 268 951 349 q 968 151 951 189 q 1019 114 985 114 q 1071 150 1054 114 q 1086 264 1086 182 q 1071 383 1086 347 q 1021 424 1054 424 z "},"&":{"ha":654,"x_min":10,"x_max":628,"o":"m 594 347 l 342 347 q 267 325 288 347 q 250 281 250 306 q 271 233 250 250 q 338 219 289 219 l 628 219 l 628 0 l 351 0 q 192 19 251 0 q 83 82 128 40 q 10 272 10 153 q 75 461 10 390 q 147 517 108 499 q 261 546 186 535 q 203 613 217 590 q 171 725 171 664 q 188 806 171 767 q 235 874 206 849 q 306 914 265 901 q 408 926 347 926 l 576 926 l 576 703 l 468 703 q 419 690 433 703 q 406 660 406 678 q 410 639 406 647 q 432 601 417 625 l 594 347 z "},"'":{"ha":321,"x_min":46,"x_max":275,"o":"m 242 557 l 79 557 l 46 926 l 275 926 l 242 557 z "},"(":{"ha":393,"x_min":38,"x_max":375,"o":"m 375 1028 l 375 826 q 324 797 339 813 q 293 751 304 778 q 269 643 278 717 q 261 454 261 575 q 269 265 261 333 q 293 157 278 192 q 324 111 304 131 q 375 82 339 96 l 375 -119 q 289 -101 318 -111 q 161 -17 214 -76 q 97 85 122 26 q 57 225 71 147 q 38 454 38 329 q 57 682 38 578 q 97 822 71 760 q 161 924 122 881 q 289 1010 215 985 q 375 1028 318 1019 z "},")":{"ha":393,"x_min":18,"x_max":356,"o":"m 18 -119 l 18 82 q 69 111 54 96 q 100 157 89 131 q 124 264 115 193 q 132 454 132 333 q 124 643 132 575 q 100 751 115 717 q 69 797 89 778 q 18 826 54 813 l 18 1028 q 106 1010 78 1019 q 232 924 176 985 q 296 822 271 881 q 338 682 325 754 q 356 454 356 586 q 338 225 356 321 q 296 85 325 153 q 232 -17 271 26 q 106 -101 178 -76 q 18 -119 78 -111 z "},"*":{"ha":674,"x_min":54,"x_max":621,"o":"m 419 926 l 419 760 l 574 813 l 621 663 l 469 611 l 569 476 l 440 383 l 343 521 l 239 383 l 107 476 l 213 611 l 54 663 l 107 813 l 264 760 l 264 926 l 419 926 z "},"+":{"ha":833,"x_min":106,"x_max":728,"o":"m 106 572 l 296 572 l 296 774 l 538 774 l 538 572 l 728 572 l 728 351 l 538 351 l 538 150 l 296 150 l 296 351 l 106 351 l 106 572 z "},",":{"ha":411,"x_min":97,"x_max":315,"o":"m 315 149 l 204 -175 l 97 -175 l 97 149 l 315 149 z "},"-":{"ha":546,"x_min":0,"x_max":547,"o":"m 547 522 l 547 303 l 0 303 l 0 522 l 547 522 z "},".":{"ha":411,"x_min":97,"x_max":315,"o":"m 315 219 l 315 0 l 97 0 l 97 219 l 315 219 z "},"/":{"ha":454,"x_min":14,"x_max":440,"o":"m 231 1010 l 440 1010 l 224 -101 l 14 -101 l 231 1010 z "},":":{"ha":411,"x_min":97,"x_max":315,"o":"m 315 219 l 315 0 l 97 0 l 97 219 l 315 219 m 315 561 l 315 342 l 97 342 l 97 561 l 315 561 z "},";":{"ha":411,"x_min":97,"x_max":315,"o":"m 315 149 l 204 -175 l 97 -175 l 97 149 l 315 149 m 315 561 l 315 342 l 97 342 l 97 561 l 315 561 z "},"<":{"ha":601,"x_min":0,"x_max":601,"o":"m 601 882 l 601 661 l 235 468 l 601 275 l 601 56 l 0 376 l 0 561 l 601 882 z "},"=":{"ha":833,"x_min":106,"x_max":728,"o":"m 106 721 l 728 721 l 728 500 l 106 500 l 106 721 m 106 422 l 728 422 l 728 203 l 106 203 l 106 422 z "},">":{"ha":601,"x_min":0,"x_max":601,"o":"m 0 56 l 0 276 l 367 469 l 0 663 l 0 882 l 601 561 l 601 376 l 0 56 z "},"?":{"ha":661,"x_min":69,"x_max":564,"o":"m 429 347 l 194 347 l 308 596 q 324 647 324 633 q 304 689 324 672 q 279 700 292 699 q 231 703 257 703 l 69 703 l 69 926 l 268 926 q 415 903 353 926 q 514 833 472 881 q 564 692 564 771 q 556 629 564 661 q 525 551 547 599 l 429 347 m 419 219 l 419 0 l 203 0 l 203 219 l 419 219 z "},"@":{"ha":1015,"x_min":18,"x_max":1000,"o":"m 710 664 l 692 557 l 569 557 q 504 550 525 557 q 461 525 481 542 q 426 478 438 504 q 413 422 413 446 q 443 350 413 376 q 529 325 472 325 l 558 493 l 679 493 l 650 325 l 694 325 q 764 339 726 325 q 817 376 792 350 q 853 440 842 403 q 867 528 867 485 q 789 732 867 651 q 681 801 744 776 q 542 826 617 826 q 382 793 456 826 q 257 699 311 760 q 189 585 211 646 q 167 453 167 522 q 188 326 167 386 q 249 218 208 268 q 371 128 296 158 q 540 100 439 100 q 790 143 669 100 l 822 18 q 689 -14 758 -4 q 539 -25 611 -25 q 144 131 286 -25 q 51 281 85 194 q 18 456 18 367 q 51 629 18 544 q 143 782 86 719 q 315 907 217 865 q 528 951 419 951 q 726 917 631 951 q 882 819 818 883 q 969 689 938 764 q 1000 539 1000 618 q 964 392 1000 461 q 864 281 929 325 q 753 233 813 247 q 601 219 692 219 q 440 236 515 219 q 376 263 406 244 q 326 304 344 281 q 289 418 289 347 q 313 529 289 481 q 379 613 338 581 q 461 650 413 635 q 564 664 507 664 l 710 664 z "},"A":{"ha":833,"x_min":-21,"x_max":865,"o":"m 279 928 l 553 928 l 865 0 l 608 0 l 279 928 m 165 567 l 394 567 l 242 0 l -21 0 l 165 567 z "},"B":{"ha":757,"x_min":56,"x_max":731,"o":"m 56 926 l 361 926 q 497 921 425 926 q 638 868 578 915 q 697 788 676 838 q 719 681 719 735 q 690 557 719 608 q 651 508 676 531 q 590 468 631 489 q 640 443 622 456 q 678 410 664 428 q 731 257 731 349 q 713 158 731 204 q 661 76 693 108 q 592 28 629 44 q 504 4 549 8 q 394 0 458 0 l 56 0 l 56 219 l 357 219 q 426 239 407 219 q 446 289 446 261 q 428 336 446 315 q 357 354 410 354 l 56 354 l 56 575 l 357 575 q 411 579 397 575 q 442 599 431 585 q 458 643 458 619 q 436 690 458 675 q 372 706 414 706 l 56 706 l 56 926 z "},"C":{"ha":685,"x_min":38,"x_max":658,"o":"m 658 926 l 658 706 l 564 706 q 440 686 488 706 q 354 619 393 667 q 299 461 299 549 q 351 310 299 378 q 442 240 393 260 q 575 219 494 219 l 658 219 l 658 0 l 533 0 q 290 47 396 0 q 121 190 189 93 q 58 318 78 250 q 38 460 38 389 q 60 604 38 533 q 124 736 83 681 q 224 839 164 793 q 346 900 279 881 q 543 926 436 926 l 658 926 z "},"D":{"ha":886,"x_min":56,"x_max":850,"o":"m 56 926 l 360 926 q 538 901 458 926 q 676 829 617 876 q 804 667 758 764 q 850 461 850 569 q 758 183 850 306 q 664 89 714 125 q 554 29 606 46 q 349 0 467 0 l 56 0 l 56 569 l 308 569 l 308 218 q 429 235 379 218 q 517 288 478 251 q 568 368 550 319 q 588 463 588 418 q 568 558 588 508 q 515 639 550 604 q 432 690 478 676 q 307 706 382 706 l 56 706 l 56 926 z "},"E":{"ha":733,"x_min":56,"x_max":679,"o":"m 679 569 l 679 350 l 308 350 l 308 219 l 679 219 l 679 0 l 56 0 l 56 569 l 679 569 m 679 926 l 679 706 l 56 706 l 56 926 l 679 926 z "},"F":{"ha":708,"x_min":56,"x_max":681,"o":"m 681 569 l 681 350 l 308 350 l 308 0 l 56 0 l 56 569 l 681 569 m 681 926 l 681 706 l 56 706 l 56 926 l 681 926 z "},"G":{"ha":832,"x_min":36,"x_max":832,"o":"m 832 567 l 832 58 l 832 567 m 832 347 l 776 347 l 832 347 m 832 347 l 832 567 l 832 347 m 776 926 l 776 706 l 569 706 q 443 688 492 706 q 358 626 394 669 q 314 547 329 593 q 299 456 299 501 q 324 339 299 393 q 393 250 347 286 q 557 194 464 194 q 711 231 656 194 q 769 276 731 243 q 832 347 803 306 l 832 58 q 718 0 786 22 q 521 -18 668 -18 q 333 15 421 -18 q 181 113 247 49 q 74 268 110 179 q 36 458 36 360 q 64 618 36 539 q 143 757 90 694 q 240 846 190 811 q 349 899 293 882 q 583 926 447 926 l 776 926 m 832 567 l 832 347 l 496 347 l 496 567 l 832 567 z "},"H":{"ha":632,"x_min":0,"x_max":632,"o":"m 0 924 l 253 924 l 253 567 l 378 567 l 378 924 l 632 924 l 632 0 l 378 0 l 378 347 l 253 347 l 253 0 l 0 0 l 0 924 z "},"I":{"ha":363,"x_min":56,"x_max":308,"o":"m 308 569 l 308 0 l 56 0 l 56 569 l 308 569 m 308 926 l 308 706 l 56 706 l 56 926 l 308 926 z "},"J":{"ha":496,"x_min":-11,"x_max":440,"o":"m 440 569 l 440 356 q 431 197 440 251 q 404 125 424 160 q 353 63 382 89 q 168 0 282 0 l -11 0 l -11 222 l 101 222 q 165 244 143 222 q 183 276 181 261 q 188 333 188 294 l 188 569 l 440 569 m 440 926 l 440 706 l 188 706 l 188 926 l 440 926 z "},"K":{"ha":632,"x_min":0,"x_max":633,"o":"m 0 0 l 0 924 l 253 924 l 251 661 l 378 924 l 633 924 l 443 492 l 633 0 l 378 0 l 253 289 l 253 0 l 0 0 z "},"L":{"ha":615,"x_min":56,"x_max":625,"o":"m 308 926 l 308 219 l 625 219 l 625 0 l 56 0 l 56 926 l 308 926 z "},"M":{"ha":1119,"x_min":56,"x_max":1065,"o":"m 56 926 l 713 926 q 893 910 826 926 q 1007 833 958 894 q 1051 742 1038 796 q 1065 606 1065 690 l 1065 0 l 813 0 l 813 594 q 807 651 813 626 q 789 683 803 672 q 756 701 775 697 q 703 706 735 706 l 308 706 l 308 0 l 56 0 l 56 926 m 678 569 l 678 0 l 443 0 l 443 569 l 678 569 z "},"N":{"ha":839,"x_min":56,"x_max":785,"o":"m 56 926 l 457 926 q 610 908 538 926 q 717 844 669 894 q 768 754 751 810 q 785 624 785 700 l 785 0 l 532 0 l 532 611 q 515 681 532 660 q 431 706 494 706 l 308 706 l 308 0 l 56 0 l 56 926 z "},"O":{"ha":1026,"x_min":38,"x_max":990,"o":"m 513 944 q 672 919 593 944 q 813 847 746 896 q 944 683 899 783 q 990 458 990 583 q 963 289 990 372 q 883 146 936 208 q 726 24 817 65 q 521 -18 635 -18 q 313 22 408 -18 q 150 142 219 61 q 38 460 38 272 q 78 664 38 567 q 192 825 115 756 q 513 944 326 944 m 513 731 q 356 660 411 731 q 299 464 299 588 q 318 342 299 400 q 369 251 336 286 q 515 194 424 194 q 672 265 617 194 q 728 463 728 335 q 671 658 728 588 q 513 731 613 731 z "},"P":{"ha":743,"x_min":56,"x_max":717,"o":"m 56 926 l 369 926 q 531 906 464 926 q 636 839 590 888 q 694 746 674 799 q 717 636 717 688 q 696 528 717 581 q 638 436 675 475 q 535 369 592 389 q 389 350 476 350 l 308 350 l 308 0 l 56 0 l 56 569 l 342 569 q 397 574 378 569 q 428 585 418 578 q 454 639 454 603 q 429 690 454 675 q 344 706 403 706 l 56 706 l 56 926 z "},"Q":{"ha":963,"x_min":28,"x_max":935,"o":"m 513 231 q 625 376 596 326 q 663 456 650 419 q 674 529 674 488 q 618 672 674 615 q 479 731 561 731 q 340 669 397 731 q 299 607 314 642 q 285 536 285 574 q 314 428 285 483 q 401 311 343 372 l 699 0 l 356 0 l 194 165 q 43 400 76 285 q 28 519 28 454 q 54 667 28 597 q 128 794 83 742 q 279 906 192 869 q 476 944 372 944 q 681 904 588 944 q 838 788 771 865 q 910 664 886 726 q 935 526 935 594 q 878 328 935 422 q 801 231 854 288 l 513 231 z "},"R":{"ha":717,"x_min":28,"x_max":690,"o":"m 28 931 l 347 931 q 493 921 435 931 q 572 889 522 917 q 635 838 611 868 q 675 765 661 804 q 690 679 690 722 q 644 532 690 596 q 588 481 619 499 q 496 449 553 461 q 569 424 544 438 q 614 382 596 408 q 649 246 649 333 l 649 0 l 396 0 l 396 219 q 371 314 396 285 q 325 342 356 333 q 244 350 294 350 l 28 350 l 28 569 l 328 569 q 383 575 367 569 q 413 593 403 582 q 428 638 428 613 q 407 689 428 669 q 339 706 389 706 l 28 706 l 28 931 z "},"S":{"ha":644,"x_min":10,"x_max":628,"o":"m 326 926 q 318 867 318 889 q 335 806 318 836 q 397 724 349 779 q 522 575 458 654 q 579 492 560 529 q 617 404 607 440 q 628 318 628 363 q 608 206 628 261 q 553 110 590 154 q 265 0 460 0 l 10 0 l 10 219 l 236 219 q 340 256 308 219 q 365 319 365 285 q 338 403 365 363 q 197 572 301 456 q 118 671 149 629 q 78 740 90 710 q 56 839 56 799 q 65 926 56 876 l 326 926 z "},"T":{"ha":663,"x_min":18,"x_max":639,"o":"m 194 -3 l 194 619 l 460 619 l 460 -3 l 194 -3 m 18 683 l 18 922 l 639 922 l 639 683 l 18 683 z "},"U":{"ha":840,"x_min":56,"x_max":785,"o":"m 785 926 l 785 0 l 351 0 q 210 19 271 0 q 138 63 169 32 q 85 136 104 94 q 56 308 56 194 l 56 926 l 308 926 l 308 338 q 314 272 308 290 q 333 238 321 247 q 364 224 344 228 q 415 219 383 219 l 533 219 l 533 926 l 785 926 z "},"V":{"ha":835,"x_min":-18,"x_max":854,"o":"m 854 922 l 547 0 l 271 0 l -18 926 l 250 926 l 367 501 q 413 267 382 440 q 460 493 438 421 l 585 926 l 854 922 z "},"W":{"ha":1108,"x_min":-18,"x_max":1128,"o":"m 1128 926 l 746 -15 l 456 668 l 614 939 l 746 549 l 865 926 l 1128 926 m 257 926 l 536 240 l 385 -15 l -18 926 l 257 926 z "},"X":{"ha":821,"x_min":28,"x_max":793,"o":"m 793 926 l 793 703 q 692 686 729 699 q 618 643 651 672 q 558 560 585 615 q 536 460 536 514 q 553 371 536 414 q 600 294 569 326 q 683 236 636 256 q 793 218 729 218 l 793 0 l 754 0 q 589 25 656 0 q 489 85 531 47 q 408 193 449 121 q 367 122 382 143 q 319 75 347 96 q 219 24 279 43 q 100 1 156 3 q 28 0 82 0 l 28 218 q 86 221 68 218 q 169 251 132 228 q 236 313 211 278 q 283 458 283 376 q 267 549 283 506 q 219 625 251 589 q 144 679 186 663 q 28 703 101 696 l 28 926 l 85 926 q 369 792 272 922 q 408 724 381 776 q 457 804 432 772 q 514 857 476 829 q 610 906 557 888 q 724 925 660 922 q 743 926 729 925 q 765 926 757 926 l 793 926 z "},"Y":{"ha":790,"x_min":-29,"x_max":838,"o":"m 546 0 l 283 0 l 575 928 l 838 928 l 546 0 m 388 347 l 133 347 l -29 928 l 224 928 l 388 347 z "},"Z":{"ha":742,"x_min":28,"x_max":714,"o":"m 557 569 l 403 219 l 707 219 l 707 0 l 28 0 l 281 569 l 557 569 m 714 926 l 617 706 l 57 706 l 57 926 l 714 926 z "},"[":{"ha":404,"x_min":56,"x_max":376,"o":"m 267 93 l 376 93 l 376 -101 l 56 -101 l 56 1010 l 376 1010 l 376 814 l 267 814 l 267 93 z "},"\\":{"ha":454,"x_min":15,"x_max":442,"o":"m 225 1010 l 442 -101 l 232 -101 l 15 1010 l 225 1010 z "},"]":{"ha":410,"x_min":18,"x_max":346,"o":"m 135 814 l 18 814 l 18 1010 l 346 1010 l 346 -101 l 18 -101 l 18 93 l 135 93 l 135 814 z "},"^":{"ha":658,"x_min":0,"x_max":660,"o":"m 196 482 l 0 482 l 206 932 l 453 932 l 660 482 l 463 482 l 329 781 l 196 482 z "},"_":{"ha":694,"x_min":0,"x_max":694,"o":"m 0 -78 l 694 -78 l 694 -207 l 0 -207 l 0 -78 z "},"`":{"ha":694,"x_min":167,"x_max":454,"o":"m 167 1186 l 381 1186 l 454 990 l 275 990 l 167 1186 z "},"{":{"ha":424,"x_min":18,"x_max":403,"o":"m 207 454 q 243 429 229 443 q 265 399 256 417 q 289 279 289 354 l 289 185 l 289 169 q 300 125 289 139 q 335 104 313 110 q 403 99 356 99 l 403 -101 l 275 -101 q 197 -90 231 -101 q 140 -57 165 -79 q 93 97 93 -11 l 93 253 q 72 331 93 306 q 18 358 56 351 l 18 549 q 72 578 54 556 q 93 656 93 603 l 93 810 q 140 964 93 918 q 197 999 167 989 q 275 1010 231 1010 l 403 1010 l 403 810 q 335 803 360 810 q 300 782 313 797 q 289 738 289 768 l 289 724 l 289 629 q 265 508 289 553 q 243 478 256 489 q 207 454 232 467 z "},"|":{"ha":224,"x_min":0,"x_max":225,"o":"m 0 926 l 225 926 l 225 -232 l 0 -232 l 0 926 z "},"}":{"ha":522,"x_min":46,"x_max":476,"o":"m 258 454 q 222 478 233 467 q 200 508 211 489 q 175 628 175 556 l 175 722 l 175 739 q 169 788 175 772 q 146 810 165 800 q 67 819 126 819 l 46 819 l 46 1010 l 218 1010 q 296 999 263 1010 q 353 964 326 989 q 400 810 400 918 l 400 654 q 422 578 400 604 q 476 549 442 556 l 476 360 q 422 331 442 353 q 400 253 400 304 l 400 97 q 353 -57 400 -11 q 218 -101 306 -101 l 46 -101 l 46 88 l 67 88 q 146 97 126 88 q 169 121 164 107 q 175 168 175 136 l 175 185 l 175 279 q 200 400 175 353 q 222 429 208 415 q 258 454 236 443 z "},"~":{"ha":671,"x_min":0,"x_max":672,"o":"m 108 761 l 0 851 q 92 999 40 954 q 213 1044 144 1044 q 271 1035 238 1044 q 365 1000 307 1024 q 397 987 381 994 q 423 976 414 979 q 436 971 432 972 q 468 967 450 967 q 519 985 497 967 q 565 1049 542 1003 l 672 958 q 631 871 651 906 q 583 815 614 844 q 454 767 531 767 q 360 789 410 767 l 300 815 q 201 846 231 846 q 153 826 175 846 q 108 761 132 807 z "}," ":{"ha":347,"x_min":0,"x_max":0,"o":""},"¡":{"ha":422,"x_min":111,"x_max":339,"o":"m 111 0 l 131 575 l 325 575 l 325 0 l 111 0 m 121 706 l 121 926 l 339 926 l 339 706 l 121 706 z "},"¢":{"ha":833,"x_min":151,"x_max":671,"o":"m 671 338 l 671 129 l 568 129 l 568 88 l 350 88 l 350 174 q 272 224 300 200 q 215 289 243 249 q 151 490 151 379 q 215 692 151 601 q 272 756 240 728 q 350 806 300 779 l 350 892 l 568 892 l 568 850 l 671 850 l 671 642 l 582 642 q 488 626 526 642 q 424 579 450 613 q 393 490 393 539 q 424 401 393 440 q 488 353 451 367 q 582 338 526 338 l 671 338 z "},"£":{"ha":833,"x_min":100,"x_max":733,"o":"m 733 926 l 733 706 l 515 706 q 463 700 479 706 q 433 678 449 696 q 417 642 421 663 q 408 569 410 604 l 643 569 l 643 350 l 132 350 l 160 644 q 188 776 168 729 q 246 861 208 828 q 342 911 286 897 q 488 926 400 926 l 733 926 m 733 219 l 733 0 l 100 0 l 119 219 l 733 219 z "},"¤":{"ha":833,"x_min":74,"x_max":760,"o":"m 74 640 l 239 807 l 324 722 l 339 726 q 417 740 382 740 q 451 738 432 740 q 494 726 460 736 q 501 725 496 726 q 510 722 506 724 l 594 807 l 760 640 l 675 557 q 678 548 676 553 q 681 542 681 543 q 692 499 690 511 q 694 463 694 479 q 692 426 694 446 q 681 385 690 417 l 675 369 l 760 286 l 594 119 l 510 204 q 417 186 457 186 q 324 204 374 186 l 239 119 l 74 286 l 157 369 q 153 385 154 381 q 142 426 143 417 q 140 463 140 436 q 142 497 140 488 q 153 542 143 508 q 157 557 154 546 l 74 640 m 490 536 q 475 551 490 536 q 417 567 460 567 q 343 536 374 567 q 314 463 314 507 q 344 390 314 421 q 417 360 375 360 q 490 390 460 360 q 521 463 521 421 q 490 536 521 506 z "},"¥":{"ha":833,"x_min":38,"x_max":796,"o":"m 196 569 l 38 926 l 293 926 l 415 569 l 542 926 l 796 926 l 636 569 l 750 569 l 750 350 l 79 350 l 79 569 l 196 569 m 539 219 l 539 0 l 288 0 l 288 219 l 539 219 z "},"¦":{"ha":224,"x_min":0,"x_max":225,"o":"m 0 926 l 225 926 l 225 433 l 0 433 l 0 926 m 0 213 l 225 213 l 225 -232 l 0 -232 l 0 213 z "},"§":{"ha":832,"x_min":121,"x_max":713,"o":"m 178 653 l 615 653 q 671 600 653 626 q 713 469 713 542 q 682 353 713 406 q 638 301 667 324 q 682 160 682 236 q 625 -7 682 63 q 392 -101 547 -101 l 165 -101 l 165 118 l 364 118 q 394 121 389 118 q 410 135 404 126 q 419 164 419 149 q 403 196 419 183 q 338 224 390 206 q 243 260 288 240 q 193 292 215 272 q 140 364 160 321 q 121 449 121 407 q 200 618 121 544 q 178 653 189 632 m 406 513 q 375 500 388 513 q 361 468 361 486 q 375 438 361 451 q 406 425 388 425 q 438 438 425 425 q 451 468 451 451 q 438 500 451 486 q 406 513 425 513 m 669 789 l 157 789 q 192 894 172 861 q 258 958 211 926 q 342 996 301 985 q 435 1010 393 1010 l 669 1010 l 669 789 z "},"¨":{"ha":694,"x_min":144,"x_max":550,"o":"m 550 1185 l 550 989 l 369 989 l 369 1185 l 550 1185 m 324 1185 l 324 989 l 144 989 l 144 1185 l 324 1185 z "},"©":{"ha":1058,"x_min":46,"x_max":1013,"o":"m 686 722 l 686 593 l 628 593 q 558 582 588 593 q 510 547 529 571 q 479 463 479 513 q 508 381 479 417 q 558 344 528 356 q 633 333 589 333 l 686 333 l 686 203 l 608 203 q 467 229 525 203 q 367 310 406 257 q 318 461 318 375 q 368 617 318 547 q 468 697 408 672 q 615 722 526 722 l 686 722 m 329 903 q 531 947 426 947 q 732 903 635 947 q 897 778 829 858 q 982 631 951 715 q 1013 463 1013 546 q 968 261 1013 358 q 843 94 924 165 q 697 10 776 38 q 531 -21 613 -21 q 328 24 425 -21 q 163 147 232 68 q 76 294 104 215 q 46 463 46 379 q 76 632 46 550 q 163 778 107 714 q 329 903 236 861 m 531 857 q 279 763 389 857 q 179 629 213 706 q 143 463 143 549 q 179 297 143 378 q 279 164 213 221 q 397 93 331 119 q 531 69 458 69 q 664 93 603 69 q 781 164 728 118 q 881 299 846 221 q 915 463 915 376 q 881 628 915 550 q 781 763 846 706 q 531 857 671 857 z "},"ª":{"ha":554,"x_min":57,"x_max":499,"o":"m 499 482 l 499 392 l 57 392 l 57 482 l 499 482 m 428 926 l 428 836 l 319 836 q 269 829 290 836 q 236 810 249 822 q 207 740 207 781 q 236 674 207 700 q 317 647 263 647 l 317 785 l 428 785 l 428 556 l 303 556 q 201 574 247 556 q 129 629 160 590 q 90 740 90 676 q 110 824 90 782 q 164 889 129 864 q 297 926 214 926 l 428 926 z "},"«":{"ha":861,"x_min":46,"x_max":806,"o":"m 490 725 l 310 438 l 490 157 l 228 157 l 46 438 l 228 725 l 490 725 m 806 725 l 624 438 l 806 157 l 543 157 l 361 438 l 543 725 l 806 725 z "},"¬":{"ha":601,"x_min":0,"x_max":601,"o":"m 383 0 l 383 211 l 0 211 l 0 406 l 601 406 l 601 0 l 383 0 z "},"®":{"ha":1058,"x_min":46,"x_max":1013,"o":"m 333 722 l 522 722 q 631 711 590 722 q 693 672 667 701 q 726 582 726 635 q 701 500 726 533 q 629 456 678 469 q 701 344 701 435 l 701 203 l 547 203 l 547 329 q 529 382 547 367 q 463 397 511 397 l 333 397 l 333 526 l 513 526 q 542 529 528 526 q 557 538 550 531 q 564 560 564 546 q 553 585 564 576 q 518 593 542 593 l 333 593 l 333 722 m 329 903 q 531 947 426 947 q 732 903 635 947 q 897 778 829 858 q 982 631 951 715 q 1013 463 1013 546 q 968 261 1013 358 q 843 94 924 165 q 697 10 776 38 q 531 -21 613 -21 q 328 24 425 -21 q 163 147 232 68 q 76 294 104 215 q 46 463 46 379 q 76 632 46 550 q 163 778 107 714 q 329 903 236 861 m 531 857 q 279 763 389 857 q 179 629 213 706 q 143 463 143 549 q 179 297 143 378 q 279 164 213 221 q 397 93 331 119 q 531 69 458 69 q 664 93 603 69 q 781 164 728 118 q 881 299 846 221 q 915 463 915 376 q 881 628 915 550 q 781 763 846 706 q 531 857 671 857 z "},"°":{"ha":517,"x_min":46,"x_max":469,"o":"m 169 907 q 258 926 213 926 q 347 907 304 926 q 419 853 392 888 q 469 715 469 792 q 419 578 469 639 q 347 522 389 542 q 258 503 304 503 q 169 522 213 503 q 97 578 128 542 q 46 715 46 640 q 60 789 46 750 q 97 853 74 826 q 169 907 129 889 m 258 801 q 196 776 221 801 q 171 715 171 751 q 196 653 171 678 q 258 628 221 628 q 319 653 294 628 q 346 715 346 679 q 319 776 346 750 q 258 801 294 801 z "},"±":{"ha":833,"x_min":106,"x_max":728,"o":"m 106 692 l 296 692 l 296 894 l 538 894 l 538 692 l 728 692 l 728 472 l 538 472 l 538 271 l 296 271 l 296 472 l 106 472 l 106 692 m 106 219 l 728 219 l 728 0 l 106 0 l 106 219 z "},"²":{"ha":549,"x_min":67,"x_max":483,"o":"m 67 926 l 261 926 q 365 913 321 926 q 435 869 407 900 q 483 751 483 821 q 438 636 483 683 q 367 590 406 603 q 261 576 322 576 l 67 576 l 67 606 q 89 676 67 650 q 131 707 107 699 q 192 715 156 715 l 258 715 q 310 751 310 715 q 294 778 310 769 q 249 786 281 786 l 67 786 l 67 926 m 461 511 l 461 372 l 67 372 l 67 511 l 461 511 z "},"³":{"ha":547,"x_min":65,"x_max":482,"o":"m 210 715 l 271 715 q 425 669 367 715 q 482 549 482 625 q 442 435 482 481 q 374 388 417 403 q 276 372 332 372 l 65 372 l 65 511 l 257 511 q 285 513 279 511 q 299 519 294 515 q 308 543 308 529 q 294 568 308 560 q 247 576 281 576 l 110 576 l 210 715 m 475 926 l 371 786 l 65 786 l 65 926 l 475 926 z "},"´":{"ha":694,"x_min":240,"x_max":528,"o":"m 528 1186 l 419 990 l 240 990 l 314 1186 l 528 1186 z "},"µ":{"ha":615,"x_min":0,"x_max":615,"o":"m 0 -237 l 0 667 l 181 667 l 181 321 q 185 246 181 271 q 203 200 189 219 q 310 139 243 139 q 371 157 342 139 q 411 203 399 174 q 431 261 424 233 q 435 326 435 279 l 435 667 l 615 667 l 615 0 l 435 0 l 435 89 q 414 44 418 50 q 389 17 403 28 q 304 -14 354 -14 q 225 13 263 -14 q 181 68 204 28 l 181 -237 l 0 -237 z "},"¶":{"ha":833,"x_min":26,"x_max":807,"o":"m 307 -101 l 307 514 l 292 514 q 183 532 236 514 q 96 581 131 550 q 26 760 26 643 q 51 879 26 829 q 128 961 75 928 q 361 1010 206 1010 l 807 1010 l 807 838 l 701 838 l 701 -101 l 556 -101 l 556 838 l 453 838 l 453 -101 l 307 -101 z "},"¸":{"ha":694,"x_min":203,"x_max":492,"o":"m 492 -64 l 383 -260 l 203 -260 l 276 -64 l 492 -64 z "},"¹":{"ha":549,"x_min":117,"x_max":393,"o":"m 393 926 l 393 371 l 224 371 l 224 785 l 117 785 l 226 926 l 393 926 z "},"º":{"ha":554,"x_min":57,"x_max":499,"o":"m 499 482 l 499 392 l 57 392 l 57 482 l 499 482 m 278 933 q 363 917 321 933 q 431 871 403 900 q 479 743 479 818 q 424 603 479 657 q 281 549 367 549 q 133 601 190 549 q 76 739 76 654 q 133 878 76 821 q 278 933 189 933 m 278 843 q 215 817 238 843 q 193 742 193 790 q 215 665 193 692 q 279 638 239 638 q 340 665 317 638 q 363 740 363 692 q 340 815 363 789 q 278 843 317 843 z "},"»":{"ha":861,"x_min":56,"x_max":815,"o":"m 371 725 l 633 725 l 815 438 l 633 157 l 371 157 l 551 438 l 371 725 m 56 725 l 318 725 l 500 438 l 318 157 l 56 157 l 238 438 l 56 725 z "},"¼":{"ha":1336,"x_min":117,"x_max":1283,"o":"m 393 926 l 393 371 l 224 371 l 224 785 l 117 785 l 226 926 l 393 926 m 722 926 l 896 926 l 624 0 l 451 0 l 722 926 m 1204 556 l 1094 344 l 1283 344 l 1283 204 l 835 204 l 1021 556 l 1204 556 m 1235 139 l 1235 0 l 1017 0 l 1017 139 l 1235 139 z "},"½":{"ha":1338,"x_min":117,"x_max":1272,"o":"m 393 926 l 393 371 l 224 371 l 224 785 l 117 785 l 226 926 l 393 926 m 722 926 l 896 926 l 624 0 l 451 0 l 722 926 m 856 556 l 1050 556 q 1154 543 1114 556 q 1224 499 1194 531 q 1272 379 1272 450 q 1226 264 1272 311 q 1156 218 1194 231 q 1050 204 1111 204 l 856 204 l 856 233 q 878 306 856 279 q 918 335 894 326 q 981 344 947 344 l 1046 344 q 1099 379 1099 344 q 1083 408 1099 400 q 1038 417 1069 417 l 856 417 l 856 556 m 1249 139 l 1249 0 l 856 0 l 856 139 l 1249 139 z "},"¾":{"ha":1336,"x_min":65,"x_max":1283,"o":"m 210 715 l 271 715 q 425 669 367 715 q 482 549 482 625 q 442 435 482 481 q 374 388 417 403 q 276 372 332 372 l 65 372 l 65 511 l 257 511 q 285 513 279 511 q 299 519 294 515 q 308 543 308 529 q 294 568 308 560 q 247 576 281 576 l 110 576 l 210 715 m 475 926 l 371 786 l 65 786 l 65 926 l 475 926 m 722 926 l 896 926 l 624 0 l 451 0 l 722 926 m 1204 556 l 1094 344 l 1283 344 l 1283 204 l 835 204 l 1021 556 l 1204 556 m 1235 139 l 1235 0 l 1017 0 l 1017 139 l 1235 139 z "},"¿":{"ha":661,"x_min":69,"x_max":564,"o":"m 204 579 l 438 579 l 325 329 q 310 278 310 292 q 329 236 310 253 q 354 225 342 226 q 403 222 376 222 l 564 222 l 564 0 l 365 0 q 218 22 276 0 q 119 92 161 44 q 69 233 69 154 q 78 297 69 267 q 108 374 85 325 l 204 579 m 214 706 l 214 926 l 432 926 l 432 706 l 214 706 z "},"À":{"ha":833,"x_min":-18,"x_max":853,"o":"m 563 926 l 853 0 l -18 0 l 169 569 l 400 569 l 301 219 l 539 219 l 289 926 l 563 926 m 236 1186 l 451 1186 l 524 990 l 344 990 l 236 1186 z "},"Á":{"ha":833,"x_min":-18,"x_max":853,"o":"m 563 926 l 853 0 l -18 0 l 169 569 l 400 569 l 301 219 l 539 219 l 289 926 l 563 926 m 599 1186 l 490 990 l 310 990 l 383 1186 l 599 1186 z "},"Â":{"ha":833,"x_min":-18,"x_max":853,"o":"m 563 926 l 853 0 l -18 0 l 169 569 l 400 569 l 301 219 l 539 219 l 289 926 l 563 926 m 506 1185 l 629 989 l 463 989 l 417 1067 l 376 989 l 206 989 l 325 1185 l 506 1185 z "},"Ã":{"ha":833,"x_min":-18,"x_max":853,"o":"m 563 926 l 853 0 l -18 0 l 169 569 l 400 569 l 301 219 l 539 219 l 289 926 l 563 926 m 249 1142 q 294 1168 272 1158 q 344 1176 315 1176 q 381 1172 364 1176 q 439 1153 390 1169 q 513 1135 493 1135 q 586 1174 553 1135 l 586 1021 q 497 992 547 992 q 419 1008 464 992 l 378 1022 q 326 1032 353 1032 q 286 1024 303 1032 q 249 992 271 1015 l 249 1142 z "},"Ä":{"ha":833,"x_min":-18,"x_max":853,"o":"m 563 926 l 853 0 l -18 0 l 169 569 l 400 569 l 301 219 l 539 219 l 289 926 l 563 926 m 621 1185 l 621 989 l 440 989 l 440 1185 l 621 1185 m 394 1185 l 394 989 l 214 989 l 214 1185 l 394 1185 z "},"Å":{"ha":833,"x_min":-18,"x_max":853,"o":"m 563 926 l 853 0 l -18 0 l 169 569 l 400 569 l 301 219 l 539 219 l 289 926 l 563 926 m 417 1254 q 517 1213 475 1254 q 558 1114 558 1171 q 517 1014 558 1056 q 417 972 475 972 q 318 1014 360 972 q 276 1114 276 1056 q 318 1213 276 1171 q 417 1254 360 1254 m 417 1154 q 386 1142 399 1154 q 374 1114 374 1129 q 386 1085 374 1097 q 417 1072 399 1072 q 449 1085 436 1072 q 461 1114 461 1097 q 449 1143 461 1131 q 417 1154 438 1154 z "},"Æ":{"ha":1274,"x_min":28,"x_max":1169,"o":"m 331 926 l 1169 926 l 1169 706 l 407 706 l 331 926 m 215 571 l 443 571 l 347 219 l 585 219 l 457 571 l 1169 571 l 1169 350 l 786 350 l 828 219 l 1169 219 l 1169 0 l 28 0 l 215 571 z "},"Ç":{"ha":685,"x_min":38,"x_max":658,"o":"m 658 926 l 658 706 l 564 706 q 440 686 488 706 q 354 619 393 667 q 299 461 299 549 q 351 310 299 378 q 442 240 393 260 q 575 219 494 219 l 658 219 l 658 0 l 533 0 q 290 47 396 0 q 121 190 189 93 q 58 318 78 250 q 38 460 38 389 q 60 604 38 533 q 124 736 83 681 q 224 839 164 793 q 346 900 279 881 q 543 926 436 926 l 658 926 m 524 -64 l 415 -260 l 236 -260 l 310 -64 l 524 -64 z "},"È":{"ha":733,"x_min":56,"x_max":679,"o":"m 679 569 l 679 350 l 308 350 l 308 219 l 679 219 l 679 0 l 56 0 l 56 569 l 679 569 m 679 926 l 679 706 l 56 706 l 56 926 l 679 926 m 186 1186 l 401 1186 l 474 990 l 294 990 l 186 1186 z "},"É":{"ha":733,"x_min":56,"x_max":679,"o":"m 679 569 l 679 350 l 308 350 l 308 219 l 679 219 l 679 0 l 56 0 l 56 569 l 679 569 m 679 926 l 679 706 l 56 706 l 56 926 l 679 926 m 549 1186 l 439 990 l 261 990 l 333 1186 l 549 1186 z "},"Ê":{"ha":733,"x_min":56,"x_max":679,"o":"m 679 569 l 679 350 l 308 350 l 308 219 l 679 219 l 679 0 l 56 0 l 56 569 l 679 569 m 679 926 l 679 706 l 56 706 l 56 926 l 679 926 m 457 1185 l 579 989 l 413 989 l 367 1067 l 326 989 l 156 989 l 276 1185 l 457 1185 z "},"Ë":{"ha":733,"x_min":56,"x_max":679,"o":"m 679 569 l 679 350 l 308 350 l 308 219 l 679 219 l 679 0 l 56 0 l 56 569 l 679 569 m 679 926 l 679 706 l 56 706 l 56 926 l 679 926 m 571 1185 l 571 989 l 390 989 l 390 1185 l 571 1185 m 344 1185 l 344 989 l 164 989 l 164 1185 l 344 1185 z "},"Ì":{"ha":363,"x_min":1,"x_max":308,"o":"m 308 569 l 308 0 l 56 0 l 56 569 l 308 569 m 308 926 l 308 706 l 56 706 l 56 926 l 308 926 m 1 1186 l 217 1186 l 290 990 l 111 990 l 1 1186 z "},"Í":{"ha":365,"x_min":56,"x_max":364,"o":"m 308 569 l 308 0 l 56 0 l 56 569 l 308 569 m 308 926 l 308 706 l 56 706 l 56 926 l 308 926 m 364 1186 l 256 990 l 76 990 l 149 1186 l 364 1186 z "},"Î":{"ha":365,"x_min":-29,"x_max":394,"o":"m 308 569 l 308 0 l 56 0 l 56 569 l 308 569 m 308 926 l 308 706 l 56 706 l 56 926 l 308 926 m 272 1185 l 394 989 l 229 989 l 182 1067 l 142 989 l -29 989 l 92 1185 l 272 1185 z "},"Ï":{"ha":365,"x_min":-1,"x_max":368,"o":"m 308 569 l 308 0 l 56 0 l 56 569 l 308 569 m 308 926 l 308 706 l 56 706 l 56 926 l 308 926 m 368 1175 l 368 1004 l 213 1004 l 213 1175 l 368 1175 m 153 1175 l 153 1004 l -1 1004 l -1 1175 l 153 1175 z "},"Ð":{"ha":907,"x_min":38,"x_max":871,"o":"m 75 926 l 381 926 q 558 901 479 926 q 699 829 640 875 q 825 665 779 763 q 871 460 871 567 q 779 182 871 303 q 686 88 735 125 q 576 29 635 49 q 369 0 489 0 l 75 0 l 75 219 l 329 219 q 450 236 400 219 q 538 289 499 253 q 590 368 572 324 q 608 463 608 413 q 590 558 608 513 q 536 639 574 601 q 453 692 497 678 q 329 706 407 706 l 75 706 l 75 926 m 450 569 l 450 350 l 38 350 l 38 569 l 450 569 z "},"Ñ":{"ha":839,"x_min":56,"x_max":785,"o":"m 56 926 l 457 926 q 610 908 538 926 q 717 844 669 894 q 768 754 751 810 q 785 624 785 700 l 785 0 l 532 0 l 532 611 q 515 681 532 660 q 431 706 494 706 l 308 706 l 308 0 l 56 0 l 56 926 m 214 1142 q 261 1168 235 1158 q 310 1176 282 1176 q 347 1172 331 1176 q 406 1153 357 1169 q 479 1135 460 1135 q 551 1174 518 1135 l 551 1021 q 463 992 511 992 q 385 1008 428 992 l 344 1022 q 292 1032 319 1032 q 250 1024 267 1032 q 214 992 238 1017 l 214 1142 z "},"Ò":{"ha":1026,"x_min":38,"x_max":990,"o":"m 513 944 q 672 919 593 944 q 813 847 746 896 q 944 683 899 783 q 990 458 990 583 q 963 289 990 372 q 883 146 936 208 q 726 24 817 65 q 521 -18 635 -18 q 313 22 408 -18 q 150 142 219 61 q 38 460 38 272 q 78 664 38 567 q 192 825 115 756 q 513 944 326 944 m 513 731 q 356 660 411 731 q 299 464 299 588 q 318 342 299 400 q 369 251 336 286 q 515 194 424 194 q 672 265 617 194 q 728 463 728 335 q 671 658 728 588 q 513 731 613 731 m 332 1186 l 547 1186 l 621 990 l 442 990 l 332 1186 z "},"Ó":{"ha":1026,"x_min":38,"x_max":990,"o":"m 513 944 q 672 919 593 944 q 813 847 746 896 q 944 683 899 783 q 990 458 990 583 q 963 289 990 372 q 883 146 936 208 q 726 24 817 65 q 521 -18 635 -18 q 313 22 408 -18 q 150 142 219 61 q 38 460 38 272 q 78 664 38 567 q 192 825 115 756 q 513 944 326 944 m 513 731 q 356 660 411 731 q 299 464 299 588 q 318 342 299 400 q 369 251 336 286 q 515 194 424 194 q 672 265 617 194 q 728 463 728 335 q 671 658 728 588 q 513 731 613 731 m 694 1186 l 585 990 l 406 990 l 479 1186 l 694 1186 z "},"Ô":{"ha":1026,"x_min":38,"x_max":990,"o":"m 513 944 q 672 919 593 944 q 813 847 746 896 q 944 683 899 783 q 990 458 990 583 q 963 289 990 372 q 883 146 936 208 q 726 24 817 65 q 521 -18 635 -18 q 313 22 408 -18 q 150 142 219 61 q 38 460 38 272 q 78 664 38 567 q 192 825 115 756 q 513 944 326 944 m 513 731 q 356 660 411 731 q 299 464 299 588 q 318 342 299 400 q 369 251 336 286 q 515 194 424 194 q 672 265 617 194 q 728 463 728 335 q 671 658 728 588 q 513 731 613 731 m 603 1185 l 725 989 l 558 989 l 514 1067 l 472 989 l 301 989 l 422 1185 l 603 1185 z "},"Õ":{"ha":1026,"x_min":38,"x_max":990,"o":"m 513 944 q 672 919 593 944 q 813 847 746 896 q 944 683 899 783 q 990 458 990 583 q 963 289 990 372 q 883 146 936 208 q 726 24 817 65 q 521 -18 635 -18 q 313 22 408 -18 q 150 142 219 61 q 38 460 38 272 q 78 664 38 567 q 192 825 115 756 q 513 944 326 944 m 513 731 q 356 660 411 731 q 299 464 299 588 q 318 342 299 400 q 369 251 336 286 q 515 194 424 194 q 672 265 617 194 q 728 463 728 335 q 671 658 728 588 q 513 731 613 731 m 344 1142 q 392 1168 365 1158 q 440 1176 413 1176 q 478 1172 461 1176 q 536 1153 488 1169 q 610 1135 590 1135 q 682 1174 649 1135 l 682 1021 q 593 992 642 992 q 517 1008 561 992 l 475 1022 q 424 1032 447 1032 q 382 1024 399 1032 q 344 992 367 1015 l 344 1142 z "},"Ö":{"ha":1026,"x_min":38,"x_max":990,"o":"m 513 944 q 672 919 593 944 q 813 847 746 896 q 944 683 899 783 q 990 458 990 583 q 963 289 990 372 q 883 146 936 208 q 726 24 817 65 q 521 -18 635 -18 q 313 22 408 -18 q 150 142 219 61 q 38 460 38 272 q 78 664 38 567 q 192 825 115 756 q 513 944 326 944 m 513 731 q 356 660 411 731 q 299 464 299 588 q 318 342 299 400 q 369 251 336 286 q 515 194 424 194 q 672 265 617 194 q 728 463 728 335 q 671 658 728 588 q 513 731 613 731 m 717 1185 l 717 989 l 536 989 l 536 1185 l 717 1185 m 492 1185 l 492 989 l 311 989 l 311 1185 l 492 1185 z "},"×":{"ha":833,"x_min":92,"x_max":742,"o":"m 256 786 l 417 625 l 578 786 l 742 622 l 581 463 l 742 300 l 578 138 l 417 299 l 256 138 l 92 300 l 254 463 l 92 622 l 256 786 z "},"Ø":{"ha":1118,"x_min":79,"x_max":1031,"o":"m 811 976 l 974 857 l 921 782 q 963 725 953 740 q 989 671 975 706 q 1031 457 1031 571 q 922 139 1031 268 q 763 19 856 60 q 556 -21 669 -21 q 446 -10 494 -21 q 331 32 403 0 l 278 -42 l 114 76 l 174 163 q 111 276 129 228 q 79 458 79 356 q 124 674 79 572 q 250 840 167 772 q 390 917 310 889 q 553 943 465 943 q 653 933 601 943 q 757 901 697 925 l 811 976 m 553 729 q 475 715 511 729 q 411 675 440 701 q 360 589 378 644 q 340 465 340 531 q 357 346 340 400 q 406 256 374 292 q 557 193 461 193 q 701 250 649 193 q 753 335 735 283 q 769 453 769 383 q 713 656 769 583 q 642 710 683 692 q 553 729 599 729 z "},"Ù":{"ha":840,"x_min":56,"x_max":785,"o":"m 785 926 l 785 0 l 351 0 q 210 19 271 0 q 138 63 169 32 q 85 136 104 94 q 56 308 56 194 l 56 926 l 308 926 l 308 338 q 314 272 308 290 q 333 238 321 247 q 364 224 344 228 q 415 219 383 219 l 533 219 l 533 926 l 785 926 m 239 1186 l 454 1186 l 528 990 l 347 990 l 239 1186 z "},"Ú":{"ha":840,"x_min":56,"x_max":785,"o":"m 785 926 l 785 0 l 351 0 q 210 19 271 0 q 138 63 169 32 q 85 136 104 94 q 56 308 56 194 l 56 926 l 308 926 l 308 338 q 314 272 308 290 q 333 238 321 247 q 364 224 344 228 q 415 219 383 219 l 533 219 l 533 926 l 785 926 m 601 1186 l 493 990 l 314 990 l 386 1186 l 601 1186 z "},"Û":{"ha":840,"x_min":56,"x_max":785,"o":"m 785 926 l 785 0 l 351 0 q 210 19 271 0 q 138 63 169 32 q 85 136 104 94 q 56 308 56 194 l 56 926 l 308 926 l 308 338 q 314 272 308 290 q 333 238 321 247 q 364 224 344 228 q 415 219 383 219 l 533 219 l 533 926 l 785 926 m 510 1185 l 632 989 l 465 989 l 419 1067 l 379 989 l 208 989 l 329 1185 l 510 1185 z "},"Ü":{"ha":840,"x_min":56,"x_max":785,"o":"m 785 926 l 785 0 l 351 0 q 210 19 271 0 q 138 63 169 32 q 85 136 104 94 q 56 308 56 194 l 56 926 l 308 926 l 308 338 q 314 272 308 290 q 333 238 321 247 q 364 224 344 228 q 415 219 383 219 l 533 219 l 533 926 l 785 926 m 624 1185 l 624 989 l 443 989 l 443 1185 l 624 1185 m 397 1185 l 397 989 l 217 989 l 217 1185 l 397 1185 z "},"Ý":{"ha":790,"x_min":28,"x_max":764,"o":"m 764 926 l 764 765 q 751 604 764 671 q 717 507 743 553 q 653 424 686 454 q 394 331 556 331 q 142 418 239 331 q 74 503 100 456 q 39 601 47 550 q 28 744 28 668 l 28 926 l 281 926 l 281 694 q 289 622 281 650 q 318 578 297 594 q 394 550 350 550 q 471 576 438 550 q 511 703 511 610 l 511 926 l 764 926 m 604 219 l 604 0 l 181 0 l 181 219 l 604 219 m 578 1186 l 468 990 l 289 990 l 363 1186 l 578 1186 z "},"Þ":{"ha":743,"x_min":56,"x_max":717,"o":"m 56 926 l 308 926 l 308 814 l 369 814 q 531 794 468 814 q 636 728 590 776 q 694 635 674 688 q 717 524 717 576 q 696 415 717 467 q 638 322 674 361 q 535 256 592 275 q 389 236 476 236 l 308 236 l 308 0 l 56 0 l 56 456 l 342 456 q 397 460 378 456 q 428 471 418 464 q 454 526 454 489 q 429 579 454 563 q 344 594 406 594 l 56 594 l 56 926 z "},"÷":{"ha":833,"x_min":106,"x_max":728,"o":"m 417 890 q 471 879 447 890 q 515 847 497 867 q 551 756 551 807 q 511 660 551 700 q 417 621 472 621 q 321 660 360 621 q 282 756 282 699 q 317 847 282 808 q 417 890 356 890 m 321 264 q 340 283 321 264 q 417 303 360 303 q 513 264 474 303 q 551 168 551 225 q 511 72 551 113 q 417 33 472 33 q 321 72 360 33 q 282 168 282 111 q 321 264 282 225 m 106 572 l 728 572 l 728 351 l 106 351 l 106 572 z "},"ÿ":{"ha":790,"x_min":28,"x_max":764,"o":"m 764 926 l 764 765 q 751 604 764 671 q 717 507 743 553 q 653 424 686 454 q 394 331 556 331 q 142 418 239 331 q 74 503 100 456 q 39 601 47 550 q 28 744 28 668 l 28 926 l 281 926 l 281 694 q 289 622 281 650 q 318 578 297 594 q 394 550 350 550 q 471 576 438 550 q 511 703 511 610 l 511 926 l 764 926 m 604 219 l 604 0 l 181 0 l 181 219 l 604 219 m 599 1185 l 599 989 l 418 989 l 418 1185 l 599 1185 m 374 1185 l 374 989 l 193 989 l 193 1185 l 374 1185 z "},"Ā":{"ha":833,"x_min":-18,"x_max":853,"o":"m 563 926 l 853 0 l -18 0 l 169 569 l 400 569 l 301 219 l 539 219 l 289 926 l 563 926 z "},"ā":{"ha":757,"x_min":56,"x_max":731,"o":"m 56 926 l 361 926 q 497 921 425 926 q 638 868 578 915 q 697 788 676 838 q 719 681 719 735 q 690 557 719 608 q 651 508 676 531 q 590 468 631 489 q 640 443 622 456 q 678 410 664 428 q 731 257 731 349 q 713 158 731 204 q 661 76 693 108 q 592 28 629 44 q 504 4 549 8 q 394 0 458 0 l 56 0 l 56 219 l 357 219 q 426 239 407 219 q 446 289 446 261 q 428 336 446 315 q 357 354 410 354 l 56 354 l 56 575 l 357 575 q 411 579 397 575 q 442 599 431 585 q 458 643 458 619 q 436 690 458 675 q 372 706 414 706 l 56 706 l 56 926 z "},"Ă":{"ha":685,"x_min":38,"x_max":658,"o":"m 658 926 l 658 706 l 564 706 q 440 686 488 706 q 354 619 393 667 q 299 461 299 549 q 351 310 299 378 q 442 240 393 260 q 575 219 494 219 l 658 219 l 658 0 l 533 0 q 290 47 396 0 q 121 190 189 93 q 58 318 78 250 q 38 460 38 389 q 60 604 38 533 q 124 736 83 681 q 224 839 164 793 q 346 900 279 881 q 543 926 436 926 l 658 926 z "},"ă":{"ha":886,"x_min":56,"x_max":850,"o":"m 56 926 l 360 926 q 538 901 458 926 q 676 829 617 876 q 804 667 758 764 q 850 461 850 569 q 758 183 850 306 q 664 89 714 125 q 554 29 606 46 q 349 0 467 0 l 56 0 l 56 569 l 308 569 l 308 218 q 429 235 379 218 q 517 288 478 251 q 568 368 550 319 q 588 463 588 418 q 568 558 588 508 q 515 639 550 604 q 432 690 478 676 q 307 706 382 706 l 56 706 l 56 926 z "},"Ą":{"ha":733,"x_min":56,"x_max":679,"o":"m 679 569 l 679 350 l 308 350 l 308 219 l 679 219 l 679 0 l 56 0 l 56 569 l 679 569 m 679 926 l 679 706 l 56 706 l 56 926 l 679 926 z "},"ą":{"ha":708,"x_min":56,"x_max":681,"o":"m 681 569 l 681 350 l 308 350 l 308 0 l 56 0 l 56 569 l 681 569 m 681 926 l 681 706 l 56 706 l 56 926 l 681 926 z "},"Ć":{"ha":832,"x_min":36,"x_max":832,"o":"m 832 567 l 832 58 l 832 567 m 832 347 l 776 347 l 832 347 m 832 347 l 832 567 l 832 347 m 776 926 l 776 706 l 569 706 q 443 688 492 706 q 358 626 394 669 q 314 547 329 593 q 299 456 299 501 q 324 339 299 393 q 393 250 347 286 q 557 194 464 194 q 711 231 656 194 q 769 276 731 243 q 832 347 803 306 l 832 58 q 718 0 786 22 q 521 -18 668 -18 q 333 15 421 -18 q 181 113 247 49 q 74 268 110 179 q 36 458 36 360 q 64 618 36 539 q 143 757 90 694 q 240 846 190 811 q 349 899 293 882 q 583 926 447 926 l 776 926 m 832 567 l 832 347 l 496 347 l 496 567 l 832 567 z "},"ć":{"ha":632,"x_min":0,"x_max":632,"o":"m 0 924 l 253 924 l 253 567 l 378 567 l 378 924 l 632 924 l 632 0 l 378 0 l 378 347 l 253 347 l 253 0 l 0 0 l 0 924 z "},"Ĉ":{"ha":363,"x_min":56,"x_max":308,"o":"m 308 569 l 308 0 l 56 0 l 56 569 l 308 569 m 308 926 l 308 706 l 56 706 l 56 926 l 308 926 z "},"ĉ":{"ha":496,"x_min":-11,"x_max":440,"o":"m 440 569 l 440 356 q 431 197 440 251 q 404 125 424 160 q 353 63 382 89 q 168 0 282 0 l -11 0 l -11 222 l 101 222 q 165 244 143 222 q 183 276 181 261 q 188 333 188 294 l 188 569 l 440 569 m 440 926 l 440 706 l 188 706 l 188 926 l 440 926 z "},"Ċ":{"ha":632,"x_min":0,"x_max":633,"o":"m 0 0 l 0 924 l 253 924 l 251 661 l 378 924 l 633 924 l 443 492 l 633 0 l 378 0 l 253 289 l 253 0 l 0 0 z "},"ċ":{"ha":615,"x_min":56,"x_max":625,"o":"m 308 926 l 308 219 l 625 219 l 625 0 l 56 0 l 56 926 l 308 926 z "},"Č":{"ha":1119,"x_min":56,"x_max":1065,"o":"m 56 926 l 713 926 q 893 910 826 926 q 1007 833 958 894 q 1051 742 1038 796 q 1065 606 1065 690 l 1065 0 l 813 0 l 813 594 q 807 651 813 626 q 789 683 803 672 q 756 701 775 697 q 703 706 735 706 l 308 706 l 308 0 l 56 0 l 56 926 m 678 569 l 678 0 l 443 0 l 443 569 l 678 569 z "},"č":{"ha":839,"x_min":56,"x_max":785,"o":"m 56 926 l 457 926 q 610 908 538 926 q 717 844 669 894 q 768 754 751 810 q 785 624 785 700 l 785 0 l 532 0 l 532 611 q 515 681 532 660 q 431 706 494 706 l 308 706 l 308 0 l 56 0 l 56 926 z "},"Ď":{"ha":1026,"x_min":38,"x_max":990,"o":"m 513 944 q 672 919 593 944 q 813 847 746 896 q 944 683 899 783 q 990 458 990 583 q 963 289 990 372 q 883 146 936 208 q 726 24 817 65 q 521 -18 635 -18 q 313 22 408 -18 q 150 142 219 61 q 38 460 38 272 q 78 664 38 567 q 192 825 115 756 q 513 944 326 944 m 513 731 q 356 660 411 731 q 299 464 299 588 q 318 342 299 400 q 369 251 336 286 q 515 194 424 194 q 672 265 617 194 q 728 463 728 335 q 671 658 728 588 q 513 731 613 731 z "},"ď":{"ha":743,"x_min":56,"x_max":717,"o":"m 56 926 l 369 926 q 531 906 464 926 q 636 839 590 888 q 694 746 674 799 q 717 636 717 688 q 696 528 717 581 q 638 436 675 475 q 535 369 592 389 q 389 350 476 350 l 308 350 l 308 0 l 56 0 l 56 569 l 342 569 q 397 574 378 569 q 428 585 418 578 q 454 639 454 603 q 429 690 454 675 q 344 706 403 706 l 56 706 l 56 926 z "},"Đ":{"ha":963,"x_min":28,"x_max":935,"o":"m 513 231 q 625 376 596 326 q 663 456 650 419 q 674 529 674 488 q 618 672 674 615 q 479 731 561 731 q 340 669 397 731 q 299 607 314 642 q 285 536 285 574 q 314 428 285 483 q 401 311 343 372 l 699 0 l 356 0 l 194 165 q 43 400 76 285 q 28 519 28 454 q 54 667 28 597 q 128 794 83 742 q 279 906 192 869 q 476 944 372 944 q 681 904 588 944 q 838 788 771 865 q 910 664 886 726 q 935 526 935 594 q 878 328 935 422 q 801 231 854 288 l 513 231 z "},"đ":{"ha":717,"x_min":28,"x_max":690,"o":"m 28 926 l 347 926 q 493 915 426 926 q 572 889 536 908 q 635 838 611 868 q 675 765 661 804 q 690 679 690 722 q 644 532 690 596 q 588 481 619 499 q 496 449 553 461 q 569 424 544 438 q 614 382 596 408 q 649 246 649 333 l 649 0 l 396 0 l 396 219 q 371 314 396 285 q 325 342 356 333 q 244 350 294 350 l 28 350 l 28 569 l 328 569 q 383 575 367 569 q 413 593 403 582 q 428 638 428 613 q 407 689 428 669 q 339 706 389 706 l 28 706 l 28 926 z "},"Ē":{"ha":644,"x_min":10,"x_max":628,"o":"m 326 926 q 318 867 318 889 q 335 806 318 836 q 397 724 349 779 q 522 575 458 654 q 579 492 560 529 q 617 404 607 440 q 628 318 628 363 q 608 206 628 261 q 553 110 590 154 q 265 0 460 0 l 10 0 l 10 219 l 236 219 q 340 256 308 219 q 365 319 365 285 q 338 403 365 363 q 197 572 301 456 q 118 671 149 629 q 78 740 90 710 q 56 839 56 799 q 65 926 56 876 l 326 926 z "},"ē":{"ha":663,"x_min":38,"x_max":635,"o":"m 333 569 l 333 339 q 349 251 333 275 q 381 229 360 236 q 442 222 401 222 l 607 222 l 607 0 l 369 0 q 244 17 297 0 q 157 72 197 32 q 96 179 110 122 q 81 326 81 244 l 81 569 l 333 569 m 635 926 l 635 706 l 38 706 l 38 926 l 635 926 z "},"Ĕ":{"ha":840,"x_min":56,"x_max":785,"o":"m 785 926 l 785 0 l 351 0 q 210 19 271 0 q 138 63 169 32 q 85 136 104 94 q 56 308 56 194 l 56 926 l 308 926 l 308 338 q 314 272 308 290 q 333 238 321 247 q 364 224 344 228 q 415 219 383 219 l 533 219 l 533 926 l 785 926 z "},"ĕ":{"ha":835,"x_min":-18,"x_max":854,"o":"m 854 922 l 547 0 l 271 0 l -18 926 l 250 926 l 367 501 q 413 267 382 440 q 460 493 438 421 l 585 926 l 854 922 z "},"Ė":{"ha":1108,"x_min":-18,"x_max":1128,"o":"m 1128 926 l 746 -15 l 456 668 l 614 939 l 746 549 l 865 926 l 1128 926 m 257 926 l 536 240 l 385 -15 l -18 926 l 257 926 z "},"ė":{"ha":821,"x_min":28,"x_max":793,"o":"m 793 926 l 793 703 q 692 686 729 699 q 618 643 651 672 q 558 560 585 615 q 536 460 536 514 q 553 371 536 414 q 600 294 569 326 q 683 236 636 256 q 793 218 729 218 l 793 0 l 754 0 q 589 25 656 0 q 489 85 531 47 q 408 193 449 121 q 367 122 382 143 q 319 75 347 96 q 219 24 279 43 q 100 1 156 3 q 28 0 82 0 l 28 218 q 86 221 68 218 q 169 251 132 228 q 236 313 211 278 q 283 458 283 376 q 267 549 283 506 q 219 625 251 589 q 144 679 186 663 q 28 703 101 696 l 28 926 l 85 926 q 369 792 272 922 q 408 724 381 776 q 457 804 432 772 q 514 857 476 829 q 610 906 557 888 q 724 925 660 922 q 743 926 729 925 q 765 926 757 926 l 793 926 z "},"Ę":{"ha":790,"x_min":28,"x_max":764,"o":"m 764 926 l 764 765 q 751 604 764 671 q 717 507 743 553 q 653 424 686 454 q 394 331 556 331 q 142 418 239 331 q 74 503 100 456 q 39 601 47 550 q 28 744 28 668 l 28 926 l 281 926 l 281 694 q 289 622 281 650 q 318 578 297 594 q 394 550 350 550 q 471 576 438 550 q 511 703 511 610 l 511 926 l 764 926 m 604 219 l 604 0 l 181 0 l 181 219 l 604 219 z "},"ę":{"ha":742,"x_min":28,"x_max":714,"o":"m 557 569 l 403 219 l 707 219 l 707 0 l 28 0 l 281 569 l 557 569 m 714 926 l 617 706 l 57 706 l 57 926 l 714 926 z "},"Œ":{"ha":1336,"x_min":38,"x_max":1281,"o":"m 1281 706 l 564 706 q 440 686 488 706 q 354 619 393 667 q 299 463 299 549 q 351 311 299 379 q 443 240 392 261 q 575 219 494 219 l 658 219 l 658 569 l 1281 569 l 1281 350 l 910 350 l 910 219 l 1281 219 l 1281 0 l 533 0 q 290 47 390 0 q 121 193 190 94 q 60 321 83 249 q 38 461 38 389 q 60 604 38 533 q 124 736 83 681 q 292 881 194 838 q 543 926 394 926 l 1281 926 l 1281 706 z "},"Š":{"ha":644,"x_min":10,"x_max":628,"o":"m 326 926 q 318 867 318 889 q 335 806 318 836 q 397 724 349 779 q 522 575 458 654 q 579 492 560 529 q 617 404 607 440 q 628 318 628 363 q 608 206 628 261 q 553 110 590 154 q 265 0 460 0 l 10 0 l 10 219 l 236 219 q 340 256 308 219 q 365 319 365 285 q 338 403 365 363 q 197 572 301 456 q 118 671 149 629 q 78 740 90 710 q 56 839 56 799 q 65 926 56 876 l 326 926 m 233 989 l 111 1185 l 278 1185 l 324 1107 l 364 1185 l 535 1185 l 414 989 l 233 989 z "},"ƒ":{"ha":835,"x_min":-28,"x_max":807,"o":"m 807 1018 l 807 799 l 681 799 q 631 793 646 799 q 599 771 615 788 q 581 735 588 758 q 568 663 579 728 l 750 663 l 750 442 l 525 442 l 507 347 l 251 347 l 269 442 l 128 442 l 128 663 l 313 663 l 326 738 q 361 874 342 825 q 464 981 389 940 q 550 1010 504 1001 q 672 1018 597 1018 l 807 1018 m -28 -185 l -28 35 l 97 35 q 151 40 135 35 q 183 63 167 44 q 199 90 192 74 q 211 143 204 107 l 228 222 l 483 222 l 458 96 q 418 -37 440 8 q 354 -119 394 -86 q 254 -171 308 -157 q 107 -185 200 -185 l -28 -185 z "},"ˆ":{"ha":694,"x_min":136,"x_max":558,"o":"m 436 1185 l 558 989 l 393 989 l 347 1067 l 306 989 l 136 989 l 256 1185 l 436 1185 z "},"ˇ":{"ha":694,"x_min":136,"x_max":558,"o":"m 258 989 l 136 1185 l 301 1185 l 347 1107 l 389 1185 l 558 1185 l 439 989 l 258 989 z "},"ˉ":{"ha":694,"x_min":153,"x_max":542,"o":"m 542 1165 l 542 1011 l 153 1011 l 153 1165 l 542 1165 z "},"˘":{"ha":694,"x_min":157,"x_max":538,"o":"m 157 1181 l 271 1181 q 303 1133 285 1150 q 347 1121 317 1121 q 392 1133 378 1121 q 424 1181 410 1150 l 538 1181 q 515 1094 525 1114 q 475 1042 499 1063 q 347 996 419 996 q 219 1042 275 996 q 179 1094 196 1063 q 157 1181 169 1114 z "},"˙":{"ha":693,"x_min":257,"x_max":436,"o":"m 436 1185 l 436 989 l 257 989 l 257 1185 l 436 1185 z "},"˚":{"ha":694,"x_min":206,"x_max":488,"o":"m 247 1213 q 268 1233 247 1213 q 347 1254 289 1254 q 447 1213 406 1254 q 488 1114 488 1172 q 446 1014 488 1056 q 347 972 404 972 q 247 1014 289 972 q 206 1114 206 1056 q 247 1213 206 1171 m 378 1142 q 372 1148 378 1142 q 347 1154 365 1154 q 317 1142 329 1154 q 303 1114 303 1128 q 317 1085 303 1099 q 347 1072 329 1072 q 378 1085 365 1072 q 390 1114 390 1097 q 378 1142 390 1129 z "},"˛":{"ha":694,"x_min":424,"x_max":678,"o":"m 522 0 l 660 0 q 572 -108 572 -67 q 583 -132 572 -125 q 615 -142 597 -142 q 678 -131 631 -142 l 678 -218 q 581 -232 608 -232 q 515 -221 549 -232 q 463 -194 482 -210 q 424 -119 424 -164 q 458 -46 424 -83 q 522 0 478 -24 z "},"˜":{"ha":694,"x_min":178,"x_max":517,"o":"m 178 1142 q 225 1168 199 1158 q 275 1176 246 1176 q 311 1172 294 1176 q 369 1153 321 1169 q 443 1135 424 1135 q 517 1174 483 1135 l 517 1021 q 428 992 478 992 q 350 1008 394 992 l 310 1022 q 257 1032 282 1032 q 215 1024 232 1032 q 178 992 200 1015 l 178 1142 z "},"˝":{"ha":694,"x_min":124,"x_max":644,"o":"m 385 1186 l 276 990 l 124 990 l 197 1186 l 385 1186 m 644 1186 l 536 990 l 385 990 l 458 1186 l 644 1186 z "},"π":{"ha":817,"x_min":0,"x_max":817,"o":"m 101 0 l 101 511 l 0 511 l 0 665 l 817 665 l 817 511 l 717 511 l 717 0 l 519 0 l 519 511 l 297 511 l 297 0 l 101 0 z "},"–":{"ha":842,"x_min":56,"x_max":788,"o":"m 788 522 l 788 303 l 56 303 l 56 522 l 788 522 z "},"—":{"ha":1018,"x_min":0,"x_max":1018,"o":"m 1018 522 l 1018 303 l 0 303 l 0 522 l 1018 522 z "},"‘":{"ha":411,"x_min":97,"x_max":315,"o":"m 97 601 l 208 926 l 315 926 l 315 601 l 97 601 z "},"’":{"ha":411,"x_min":97,"x_max":315,"o":"m 315 926 l 204 601 l 97 601 l 97 926 l 315 926 z "},"‚":{"ha":411,"x_min":97,"x_max":315,"o":"m 315 149 l 204 -175 l 97 -175 l 97 149 l 315 149 z "},"“":{"ha":732,"x_min":97,"x_max":636,"o":"m 97 601 l 208 926 l 317 926 l 317 601 l 97 601 m 417 601 l 528 926 l 636 926 l 636 601 l 417 601 z "},"”":{"ha":731,"x_min":97,"x_max":635,"o":"m 315 926 l 204 601 l 97 601 l 97 926 l 315 926 m 635 926 l 524 601 l 417 601 l 417 926 l 635 926 z "},"„":{"ha":731,"x_min":97,"x_max":635,"o":"m 315 149 l 204 -175 l 97 -175 l 97 149 l 315 149 m 635 149 l 524 -175 l 417 -175 l 417 149 l 635 149 z "},"†":{"ha":833,"x_min":150,"x_max":683,"o":"m 289 431 l 289 568 l 150 568 l 150 788 l 289 788 l 289 1010 l 542 1010 l 542 788 l 683 788 l 683 568 l 542 568 l 542 431 l 289 431 m 289 -101 l 289 306 l 542 306 l 542 -101 l 289 -101 z "},"‡":{"ha":833,"x_min":150,"x_max":683,"o":"m 542 568 l 542 340 l 683 340 l 683 119 l 542 119 l 542 -101 l 289 -101 l 289 119 l 150 119 l 150 340 l 289 340 l 289 568 l 150 568 l 150 788 l 289 788 l 289 1010 l 542 1010 l 542 788 l 683 788 l 683 568 l 542 568 z "},"•":{"ha":385,"x_min":0,"x_max":385,"o":"m 194 664 q 318 617 263 664 q 368 551 351 590 q 385 471 385 514 q 368 390 385 428 q 318 324 351 353 q 194 278 264 278 q 113 296 153 278 q 47 346 74 313 q 0 471 0 401 q 13 538 0 504 q 47 597 26 575 q 113 646 75 629 q 194 664 153 664 z "},"…":{"ha":1236,"x_min":97,"x_max":1139,"o":"m 315 219 l 315 0 l 97 0 l 97 219 l 315 219 m 726 219 l 726 0 l 510 0 l 510 219 l 726 219 m 1139 219 l 1139 0 l 922 0 l 922 219 l 1139 219 z "},"‰":{"ha":1835,"x_min":18,"x_max":1817,"o":"m 261 936 q 422 874 358 936 q 501 656 501 797 q 421 436 501 508 q 260 378 358 378 q 83 453 147 378 q 18 657 18 529 q 83 861 18 785 q 261 936 147 936 m 261 811 q 208 775 225 811 q 192 657 192 738 q 208 540 192 578 q 261 503 225 503 q 313 539 296 503 q 328 653 328 571 q 311 772 328 733 q 261 811 294 811 m 694 926 l 867 926 l 596 0 l 422 0 l 694 926 m 1021 549 q 1182 485 1115 549 q 1261 267 1261 408 q 1181 47 1261 121 q 1019 -11 1118 -11 q 843 64 908 -11 q 779 268 779 138 q 843 474 779 400 q 1021 549 908 549 m 1021 424 q 969 386 986 424 q 953 268 953 349 q 969 151 953 189 q 1021 114 986 114 q 1071 150 1054 114 q 1088 264 1088 186 q 1071 383 1088 344 q 1021 424 1054 424 m 1576 549 q 1738 485 1671 549 q 1817 267 1817 408 q 1751 63 1817 136 q 1575 -11 1686 -11 q 1399 64 1464 -11 q 1333 268 1333 140 q 1399 474 1333 397 q 1576 549 1464 549 m 1576 424 q 1524 386 1540 424 q 1507 268 1507 349 q 1524 151 1507 189 q 1576 114 1540 114 q 1626 150 1610 114 q 1643 264 1643 188 q 1626 383 1643 344 q 1576 424 1610 424 z "},"‹":{"ha":547,"x_min":46,"x_max":490,"o":"m 490 725 l 310 438 l 490 157 l 228 157 l 46 438 l 228 725 l 490 725 z "},"›":{"ha":547,"x_min":56,"x_max":500,"o":"m 56 725 l 318 725 l 500 438 l 318 157 l 56 157 l 238 438 l 56 725 z "},"™":{"ha":1033,"x_min":17,"x_max":1007,"o":"m 197 729 l 197 599 q 208 550 197 561 q 256 539 219 539 l 356 539 l 356 410 l 214 410 q 88 450 131 410 q 53 506 64 471 q 42 592 42 539 l 42 729 l 197 729 m 374 926 l 374 796 l 17 796 l 17 926 l 374 926 m 411 926 l 797 926 q 908 915 868 926 q 971 874 946 906 q 999 822 990 853 q 1007 746 1007 793 l 1007 407 l 851 407 l 851 740 q 839 785 851 775 q 792 796 825 796 l 567 796 l 567 407 l 411 407 l 411 926 m 782 729 l 782 406 l 636 406 l 636 729 l 782 729 z "},"Ω":{"ha":858,"x_min":0,"x_max":860,"o":"m 4 0 l 4 183 l 192 183 q 122 233 153 207 q 72 286 93 258 q 18 390 38 329 q 0 514 0 446 q 28 668 0 592 q 108 804 54 742 q 431 949 235 949 q 607 911 525 949 q 751 804 692 872 q 832 668 806 742 q 860 514 860 592 q 788 288 860 383 q 739 233 763 253 q 667 183 715 214 l 854 183 l 854 0 l 479 0 l 479 169 q 543 211 517 189 q 590 265 567 231 q 636 364 621 313 q 651 475 651 417 q 574 697 651 611 q 431 765 511 765 q 286 697 349 765 q 208 478 208 611 q 279 249 208 339 q 322 204 303 219 q 381 169 350 183 l 381 0 l 4 0 z "},"∂":{"ha":646,"x_min":0,"x_max":647,"o":"m 57 758 l 81 922 q 329 865 228 908 q 503 749 426 825 q 647 369 647 601 q 628 215 647 282 q 567 100 610 151 q 318 -11 476 -11 q 124 49 204 -11 q 33 160 67 92 q 0 306 0 228 q 24 428 0 372 q 92 526 49 485 q 178 581 129 561 q 279 600 228 600 q 376 583 326 600 q 444 540 406 572 q 389 629 401 615 q 285 703 344 678 q 169 743 214 732 q 57 758 138 751 m 325 447 q 282 439 306 447 q 242 417 257 429 q 203 365 218 400 q 188 300 188 332 q 235 186 188 229 q 324 150 275 150 q 408 182 368 150 q 460 300 460 225 q 447 365 460 336 q 411 415 433 397 q 325 447 372 447 z "},"∆":{"ha":881,"x_min":0,"x_max":882,"o":"m 0 0 l 331 926 l 549 926 l 882 0 l 0 0 m 268 183 l 608 183 l 440 704 l 268 183 z "},"∏":{"ha":875,"x_min":0,"x_max":876,"o":"m 0 1042 l 876 1042 l 876 869 l 776 869 l 776 -175 l 876 -175 l 876 -347 l 500 -347 l 500 -175 l 588 -175 l 588 869 l 282 869 l 282 -175 l 375 -175 l 375 -347 l 0 -347 l 0 -175 l 101 -175 l 101 869 l 0 869 l 0 1042 z "},"∑":{"ha":832,"x_min":0,"x_max":832,"o":"m 819 1042 l 819 683 l 631 683 l 608 847 l 236 847 l 571 369 l 238 -153 l 619 -153 l 633 21 l 832 21 l 832 -347 l 0 -347 l 0 -122 l 322 369 l 0 818 l 0 1042 l 819 1042 z "},"∕":{"ha":240,"x_min":-96,"x_max":347,"o":"m 174 926 l 347 926 l 76 0 l -96 0 l 174 926 z "},"∙":{"ha":467,"x_min":97,"x_max":371,"o":"m 371 563 l 371 289 l 97 289 l 97 563 l 371 563 z "},"√":{"ha":925,"x_min":0,"x_max":926,"o":"m 926 1149 l 926 976 l 696 976 l 450 0 l 204 0 l 124 353 l 0 353 l 0 524 l 243 524 l 281 382 q 306 203 290 349 l 308 183 l 319 183 q 333 278 321 204 q 364 443 344 350 q 406 618 376 503 l 542 1149 l 926 1149 z "},"∞":{"ha":876,"x_min":0,"x_max":878,"o":"m 442 376 q 219 251 344 251 q 67 308 131 251 q 0 474 0 369 q 69 636 0 576 q 221 692 133 692 q 297 678 264 692 q 371 635 332 664 q 435 568 404 607 q 538 661 479 629 q 660 692 593 692 q 747 675 706 692 q 819 626 790 658 q 878 471 878 567 q 815 313 878 372 q 656 251 751 251 q 542 283 597 251 q 442 376 486 315 m 511 472 q 639 376 574 376 q 704 404 679 376 q 729 475 729 431 q 703 540 729 514 q 638 567 676 567 q 550 522 594 567 q 526 493 549 521 l 511 472 m 367 471 q 239 567 304 567 q 174 539 199 567 q 147 468 147 510 q 175 403 147 431 q 240 376 201 376 q 328 421 283 376 q 351 449 335 428 q 367 471 367 468 z "},"∫":{"ha":579,"x_min":0,"x_max":579,"o":"m 0 -333 l 35 -135 q 93 -146 64 -146 q 156 -122 132 -146 q 174 -89 169 -108 q 178 -22 178 -69 l 178 53 l 178 604 l 178 679 q 179 776 178 764 q 213 915 183 863 q 458 1042 283 1042 q 579 1028 510 1042 l 544 829 q 483 842 515 842 q 413 801 431 842 q 404 771 407 789 q 403 711 403 760 l 403 96 q 401 -86 403 -71 q 365 -224 396 -169 q 114 -346 293 -346 q 0 -333 44 -346 z "},"≈":{"ha":671,"x_min":0,"x_max":672,"o":"m 108 483 l 0 560 q 92 707 40 663 q 213 753 144 753 q 271 743 238 753 q 365 708 307 732 q 436 681 421 685 q 468 675 456 675 q 529 697 506 675 q 565 743 540 706 l 672 667 q 631 579 651 614 q 583 524 614 553 q 454 475 531 475 q 357 499 411 475 l 300 524 q 200 554 233 554 q 154 539 176 554 q 108 483 135 525 m 108 174 l 0 250 q 92 397 40 353 q 213 443 144 443 q 271 433 238 443 q 365 399 314 421 q 436 371 424 374 q 469 365 458 365 q 529 389 503 365 q 565 433 542 400 l 672 357 q 629 269 653 308 q 583 214 611 240 q 454 167 532 167 q 399 175 425 167 q 300 214 364 186 q 200 244 228 244 q 154 229 176 244 q 108 174 135 215 z "},"≠":{"ha":601,"x_min":0,"x_max":603,"o":"m 310 671 l 406 851 l 544 778 l 486 671 l 603 671 l 603 488 l 410 488 l 354 379 l 601 379 l 601 197 l 286 197 l 203 42 l 65 115 l 111 197 l 0 197 l 0 379 l 178 379 l 235 488 l 0 488 l 0 671 l 310 671 z "},"≤":{"ha":601,"x_min":0,"x_max":601,"o":"m 601 904 l 601 696 l 242 585 l 601 475 l 601 267 l 0 493 l 0 679 l 601 904 m 601 231 l 601 36 l 0 36 l 0 231 l 601 231 z "},"≥":{"ha":601,"x_min":0,"x_max":601,"o":"m 0 267 l 0 475 l 360 585 l 0 696 l 0 904 l 601 679 l 601 493 l 0 267 m 0 36 l 0 231 l 601 231 l 601 36 l 0 36 z "},"◊":{"ha":721,"x_min":0,"x_max":721,"o":"m 361 963 l 721 463 l 361 -36 l 0 463 l 361 963 m 361 839 l 86 463 l 361 88 l 635 463 l 361 839 z "}}}
